<mxfile host="app.diagrams.net" modified="2024-05-06T14:18:42.703Z" agent="Mozilla/5.0 (Windows NT 10.0; Win64; x64) AppleWebKit/537.36 (KHTML, like Gecko) Chrome/124.0.0.0 Safari/537.36 Edg/124.0.0.0" etag="j4bU_YELn7XkupgGnmiI" version="24.3.1" type="github">
  <diagram name="Page-1" id="bldviGOM2PhAeHIemhQr">
    <mxGraphModel dx="1678" dy="924" grid="1" gridSize="10" guides="1" tooltips="1" connect="1" arrows="1" fold="1" page="1" pageScale="1" pageWidth="850" pageHeight="1100" math="0" shadow="0">
      <root>
        <mxCell id="0" />
        <mxCell id="1" parent="0" />
        <mxCell id="x5C6FpIDevCYcziMVME_-19" style="edgeStyle=orthogonalEdgeStyle;rounded=0;orthogonalLoop=1;jettySize=auto;html=1;exitX=0.5;exitY=1;exitDx=0;exitDy=0;entryX=0.5;entryY=0;entryDx=0;entryDy=0;" parent="1" source="x5C6FpIDevCYcziMVME_-6" target="x5C6FpIDevCYcziMVME_-14" edge="1">
          <mxGeometry relative="1" as="geometry" />
        </mxCell>
        <mxCell id="x5C6FpIDevCYcziMVME_-6" value="&lt;div&gt;Predictions et IC&lt;/div&gt;" style="rounded=1;whiteSpace=wrap;html=1;fillColor=#e1d5e7;strokeColor=#9673a6;fontFamily=Work Sans;fontSource=https%3A%2F%2Ffonts.googleapis.com%2Fcss%3Ffamily%3DWork%2BSans;" parent="1" vertex="1">
          <mxGeometry x="20" y="210" width="120" height="60" as="geometry" />
        </mxCell>
        <mxCell id="x5C6FpIDevCYcziMVME_-14" value="&lt;div&gt;Module de classification&lt;br&gt;&lt;/div&gt;&lt;div&gt;&lt;br&gt;&lt;/div&gt;&lt;div&gt;&lt;br&gt;&lt;/div&gt;" style="rounded=1;whiteSpace=wrap;html=1;fillColor=#ffe6cc;fontFamily=Work Sans;strokeColor=#d79b00;fontSource=https%3A%2F%2Ffonts.googleapis.com%2Fcss%3Ffamily%3DWork%2BSans;" parent="1" vertex="1">
          <mxGeometry x="20" y="330" width="120" height="107.5" as="geometry" />
        </mxCell>
        <mxCell id="x5C6FpIDevCYcziMVME_-15" value="" style="shape=image;verticalLabelPosition=bottom;labelBackgroundColor=default;verticalAlign=top;aspect=fixed;imageAspect=0;image=data:image/png,iVBORw0KGgoAAAANSUhEUgAABLAAAAJ2CAYAAABPQHtcAABVbElEQVR42u3dB9QdVdU/YNMICQmhE+kYehUQERHpglgpUflARcWKiChNFCEiKiCCooiKKCIooiJFqTakgyC9KDVI7yWk8+15GWKAlLfce9/ZM8+z1m/xX/9PJffsc2bm7Ex5zWsAAAAAAAAAAAAAAAAAAAAAAAAAAAAAAAAAAAAAAAAAAAAAAAAAAAAAAAAAAAAAAAAAAAAAAAAAAAAAAAAAAAAAAAAAAAAAAAAAAAAAAAAAAAAAAAAAAAAAAAAAAAAAAAAAAAAAAAAAAAAAAAAAAAAAAAAAAAAAAAAAAAAAAAAAAAAAAAAAAAAAAAAAAAAAAAAAAAAAAAAAAAAAAAAAAAAAAAAAAAAAAAAAAAAAAAAAAAAAAAAAAAAAAAAAAAAAAAAAAAAAAAAAAAAAAAAAAAAAAAAAAAAAAAAAAAAAAAAAAAAAAAAAAAAAAAAAAAAAAAAAAAAAAAAAAAAAAAAAAAAAAAAAAAAAAAAAAAAAAAAAAAAAAAAAAAAAAAAAAAAAAAAAAAAAAAAAAAAAAAAAAAAAAAAAAAAAAAAAAAAAAAAAAAAAAAAAAAAAAAAAAAAAAAAAAAAAAAAAAAAAAAAAAAAAAAAAAAAAAAAAAAAAAAAAAAAAAAAAAAAAAAAAAAAAAAAAAAAAAAAAAAAAAAAAAAAAAAAAAAAAAAAAAAAAAAAAAAAAAAAAAAAAAAAAAAAAAAAAAAAAAAAAAAAAAAAAAAAAAAAAAAAAAAAAAAAAAAAAAAAAAAAAAAAAAAAAAAAAAAAAAAAAAAAAAAAAAAAAAAAAAAAAAAAAAAAAAAAAAAAAAAAAAAAAAAAAAAAAAAAAAAAAAAAAAAAAAAAAAAAAAAAAAAAAAAAAAAAAAAAAAAAAAAAAAAAAAAAAAAAAAAAAAAAAAAAAAAAAAAAAAAAAAAAAAAAAAAAAAAAAAAAAAAAAAAAAAAAAAAAAAAAAAAAAAAAAAAAAAAAAAAAAAAAAAAAAAAAAAAAAAAAAAAAAAAAAAAAAAAAAAAAAAAAAAAAAAAAAAAAAAAAAAAAAAAAAAAAAAAAAAAAAAAAAAAAAAAAAAAAAAAAAAAAAAAAAAAAAAAAAAAAAAAAAAAAAAAAAAAAAAAAAAAAAAAAAAAAAAAAAAAAAAAAAAAAAAAAAAAAAAAAAAAAAAAAAAAAAAAAAAAAAAAAAAAAAAAAAAAAAAAAAAAAAAAAAAAAAAAAAAAAAAAAAAAAAAAAAgGobP3rM8MgykbUiG0XGRvaI/CTy88jlkWvLPBB54RV5fqb/+78ip0Z+Fjkwsntk88j6kVUji0eGGXUAAAAAZqtsVn02cnLkscjjkeciU2bRnGpVpkcmRZ4u/513lw2yolk2QlUAAAAAGmr86DFLRt4RGRe5oLxb6oUK5qHI7yNfiGwaGaV6AAAAADU0fvSYAZF5IwdF7qlos6q7uTqyY2SgygIAAAAkN370mK0iv4jclLxpNatMi6ymygAAAACJFHclRRaKfKWGDatXZpKKAwAAACQyfvSYj5d3Wk1qQPOqyImqDgAAAFBx40ePWT7yuciEhjStZs4SZgAAAABARZWPCp7aoLutXpn/mAUAAAAAFTR+9JhlI0c1tGk1c441GwAAAAAqZPzoMcMix2tczciOZgUAAABARYwfPeaIyEOaVv+LWQEAAABQAeNHj3lD5L8aVq/KL8wOAAAAgH40fvSY4ZE/R6ZrVs0yY8wSAAAAgH4yfvSYd0cmalLNNvdHRpgpAAAAAP1g/OgxF2hQzTWXmykAAAAAHTZ+9JitIw9rTnUrHzJjAAAAADpk/OgxAyOHaEr5+iAASYwdt2rkqMgRIg2Lv0QEgAY2rgZE5o38Q1OqR/ml2QNAPzew3h15QaSBOd0BAACa18BaPPKQhlSP826zB4B+bmC9UyNDGprfOgAAQLOaV2+MPKMZ1eM8G1nKDAJAA0tEAwsAaG/zanuNqF7nP2YQABpYIhpYAEB7m1d7akL1KR8xiwDQwBLRwAIA2te8+ooGVJ8zxEwCQANLRAMLAGhP88qdV33PRWYSABpYIhpYAEB7mlcHaD61JJ8xmwDQwBLRwAIAWt+82kfjqWVZ3YwCQANLRAMLAGht8+o9mk4ty0QzCgANLBENLACgtc2rHTWdWpqDzSoANLBENLAAgNY1r5Yp7hjSdGppBppZAGhgiWhgAQCtaV69LjJBw6mluSYywOwCQANLRAMLAOh782pQ5EoNp5bnCLMLAA0sEQ0sAKA1Dax/aDa1JW81uwDQwBLRwAIA+t682l2jqS2ZanYBoIElooEFAPS9ebVmw5tMT5TvqZpVHu3j//Y4MwwADSwRDSwAoPeNqwGR4ZHHG9CkKhpR50W+Hdk5skFkZA/Ha/HiccDIDpEvRn4WuTjy1Bz+vcuYaQBoYIloYAEAfWtinVnThtX0Mr+MrNGBcSy+3nh45OHItPLPcG9kPrMMAA0sEQ0sAKD3TZfP1rR5dU5kq8g8/TSuK0c+Ffm6WQaABpaIBhYA0Psmy8KRCTVqWk2KXBZZXnUBQANLRAMLAOrRwPp3jZpX/4ysqKoAoIElooEFAPVpXu1Vk8bVc5E9VRQANLBENLAAoF7Nq8GRiTVoXl3b068IAgAaWKKB5QAA0NjrnyW7roFI08C6pAbNq8NUEoB+Pp+OiGwTGRe5KLK7BpaIBhYAlbremT+yY+S4yPjyPPBzA5PjYnuzyLTEjaviz/4hlQSgw+fPAZEh5QdQisfwb53FOWoVDSwRDSwA+vX6ZlBkSGSLyI2zOQ/8xEDluAC/P3HzqnjscSNVBKCD5831yzusLojcPafzVMILPA0s0cACoC6NqzUjR0aujEyey3lAAyvBRfhXEjevpkS2UkUA2nieHBZZKvK2yC/Lc093z1NnaGCJaGAB0LHrmAUia0SOiDzVw/OABlbFL8qLRx6eTnzn1etVEYA2nB8HRT4a+Vvk3sjzvTxXvV8DS0QDC4C2X798IvKPyMN9OA9oYFX8Av3IxHdf7a6CALTofPi68g6rr0f+1cL3M66sgSWigQVAy69XVo98MHJ+C88DGlgVvlgfnbh5tbcKAtDH8+DakWMjj0YmR6a3+Fz1WHGnswaWiAYWAC25Rlmq/GrgM5EpbTgPaGBV9KK9+GrSn5I2r85TQQB6eN4bHtm6fPH6uX14JLAnuT3pxaEGlmhgAVCFa5IRke0iJ0Tu6MB5QAOrohfy8ydtXt2negDM5RxX/CXN0LJptVvksn46Zx2vgSWigQVAt69BBkfmjbw9cnk/nAc0sCp6cf+PpA2sDVQPgNmc21aLHBC5IHJnBc5Zm2hgiWhgATDXa4+1I9+JXBt5th/PAxpYFbzAf0PS5tX+qgdAeS4r7q5aLrJl5LgqnrcSX0RqYIkGFgDtvNZYoGxaHRR5tELnAQ2sCl70/yph8+qmyGDVA2j8Oex9kbMjD0UmVPi8dUXii8r3amRIQ3O2oyxAW68xNi/vsnqsoucBDayKXfgPS3r31RaqB9Do89e+yc5bX0t8cVm8e2LJyBIy2+ySsDkzQt3mmoUcbQHaeo3x/YqfKzWwKrYBOCNh8+rnKgfQ+PPXxYnOW9Mj26parS/A356ugQUA/X/+PEoDi+5e/C8emZysefVs5LWqB9D4c1imc9fUyMqqpoGlgQUAGlj07uL/ownvvjpN5QAaf/56U7Jz10RV08DSwAIADSx6vwF4MNkG4DlVAyDOB0cnO39doGoaWBpYAKCBRe8u/t+T8O6rPVUOoPHnrwGR65Kdv3ZSOQ0sDSwA0MCidxuAaxO+P2RZlQNo/PlrROS+TOcwVdPA0sACAA0senfxv2jxOF6yBtYvVQ6AOB8sVn7VL8v5625V08DSwAIADSx6d/H/uYSPDw5TOQDifPB/yc5fv1U1DSwNLADQwKJ3F/8Tkl38/17VACjPYacmO4fto2oaWBpYAKCBRc8v/DdOePfV+1QOgPI8lu0c9iZV08DSwAIADSx6fuF/SraLf1UDoDyHrZSwgTVA5TSwNLAAQAOLnl34F58evyPZhf9hKgdAeR77VLJz2JWqpoGlgQUAGlj0/MJ/zYR/cz1K5QAoz2PZ7iLeV9U0sDSwAEADi55f+P8x2YX/TZEhKgdAeRfxVcnOY8uqnAaWBhYAaGDRswv/QQnvvjpO5QAoz2MDIxMTncMejsynchpYGlgAoIFFzy78356wgbWmygFQnsfelOwcdl1ksMppYGlgAYAGFj278P9Gsgv/x1QNgJnOY0cmO4+drGoaWBpYAKCBRc8v/G9KduH/TVUDYKbz2IRk57EPqpoGlgYWAGhg0bOL/iEJHx9cT+UAKM9jSyY8j41UOQ0sDSwA0MCiZxf+X0520f94ZGGVA6A8j22Z7Dx2t6ppYGlgAYAGFj2/8L8t2YX/v1UNgJnOY/slO48drWoaWBpYAKCBRc8u+heLPJvswv87KgfATOeyc5KdxzZXNQ0sDSwA0MCiZxf9b4hMTXbh/3qVA2Cmc9kTic5hxcvml1c1DSwNLADQwKJnF/2fzvbiW1UDYKbz2NLJzmOPeoG7BpYGFgBoYNHzC/8Lk134/03VAJjpPPbFZOexf6qaBpYGFgBoYNHzC/9sjw/up2oAzHQeuybZeWwvVdPA0sACAA0senbRv3ayi/7pkW1VDoDyPDZ/svdfveD9VxpYGlgAoIFFzy/8v5rson+qC38AZjqPrRB5PtF57GlV08DSwAIADSx6fuF/VbIG1vOqBsBM57HNk53HfqtqGlgaWACggUXPLvrni9zrwh+AxOey47z/Cg0sDSx6NBeXi2wR2T7yucg3IodGfhQ5L3LOLHJ+5IjyP/etyAcjYyMrRxY3qIAGFu2+6F80MiHZhb/3XwEw87nszmTvcdxM1TSwNLBo4zwbHhkdWS2yaeSAyMmRmzowZ/4duTDyvci7ImtFlo7MpzCABhZ9vejP9tiFCykAZj6PjUz4IZJFVE4DSwOLFs+tVSJfilwZeSjyVGRqBebQ9MizkUci10W+FhmjYIAGFr258P9xsgv/21QNgJnOYzsnO489rmoaWBpY9HEeDYlsHNkjckbk+XTzauy4ZyK/i3wksoaiAhpYdOfC/8lkF/6/VLV+mSfFnXpv7cdsEllMJYBZHJ9OSXYe+46qaWBpYNHL+bNa2fR56c6mF2qS4rdMiRwYGarQwCyOf9+p+HHsx02/IB8XeSryRBvzWLbHB8v3dT2RII9HburAPFmy/HT83P48zyes9dzyVNmAvS3yr8hfI2dFvhv5UuTDZeNtIUd8urGOiibpuyOfiXwr8r3IaZEzIudGrivn2TWRh5Mch2aVZzvx/qX4d7wv8kyHjrVTE57HHk88h57o5jlnY0cXDSxaMmfeEzklck+NGlZzy1WR/SML1ayWJ9SgNjtalD2u+1eT13ydufy+FyRpWnzxf1cNGw5Ny486sEnczjh3O/+OHFpsqoqmVvkFzoHOqrVvTg2MDI8sWH604p2RYyIXlg2Wpq2DSZElOjDuZzjmND4DHIE0sOjVHBnQ1bjJv+ltVX4fWTgyqCb1vbUGNRltoXa73ssmr/V3uvEbHaea3sCKi775XfjWIht1YJP4XePc65co3xe5tmxmbOIMW6um1eKR90dOjlwdubu888jcHz1mfGREB2pgrJudWxyJNLDo1fzYKnJ5ZJLN1SzvytqlBjV+Qw1qcZLF2q1aD4xcnHrNde93Oj5pYHVtvFwAJ0+HNuoXGeuW5szyMbLlnHXTNKtGRVYvj5unNvSuqp7kqg7UZGXj3Ph81dFJA4tuz4lBkS0it9lQdSu3RDZLXvM63F23gcU71zpvkri+xYchlui6I1QDSwOrGxf/P3bxmz5XdGjz/oixbts7av4T+ayzb2UbV58s7vIo34M22Zztdg7pQG0+b5wbn9UdpTSw6NZ8eGfkCRupXuWuub6bp9q1/1vy8X+0du8oa21950le31178Fsdj5rcwCrf13K5i9/0ObQDm8TFjHNH8lzkB5H1nY37tWG1RuQLkX+Yk33KKh2o1R+Mc6PzTCfes6aBpYGVfB5sF7nWBqpFj7ONHbdUwjmweg3G/msW82zr++3Edf1DD3+r41DDG1jzRB5wAZz+/Urv6cAm8SBj3fHcEVnWWbkjDasBkWGRPcq7rMy/FrzAvQN1G1h+sdF4Nzf3RIY6imlgMcv6Fy9nv9PGqS3ZrVuPO1VrPrynBuO+joX9qrqOTF7TBTSwNLB6cvE/2sVv+hSfdF+pAxvFO411v6W4C+jtLzVanKlbPrd3jfw58ry51tKc26HG41Rj3ej80VFMA4tZ1v6nNkxtT/EC/NWSzYtLk4/5TbX5QmRr6ll8RfSOxPXcpBe/2bGn4Q2svVz8usuhG/NkpHGuRM7qxBfdGtK0GlW+O2m6edW2fKYDddzYODc+n3JE08DiZZvZbWyUOp7t0tyNNXbcwjUY789Y7DPq+f7I9KR1/Hkvf7NjTsMbWN5/lT8XdmCT+GYb/cqkuEtob2fsXs/l4l1u50eeNpfammmRjTpQz+8b68ZnmCObBhZdtR4WudAmqd9yUaK5sk3ipsdLWdWi76rlc0nr91wffrPjTVMbWHHRN8iFby3yvg5sEnc1zpXLeZHFnbm7PYdXjhxr3nS00bpkB+qqEdns3OfopoFFV53fHJlog9TvmZzmkcKx4y5LPtZ/se7H/Tpp7aZGltfA0sDqzYX/ei5+86dDm/8TjXVlv761gSv3Oc7d4sXsF0Ymmy8dzbMdqO3ixrnxOdFRTgNLjcf92Maocvl0krmTven50Qav++XKhmnGuh3dx9/uGNPgBtanXfymz50dagLcY6wrnc+7gn/VnB0SOdijr/2WH3Sgxtsa58bn/xztNLAaXNtFI9fYFFU2ByaYQ9m/Slg8BrlYQ9d/1rV/bQt+u+NLgxtYv3Dxmz6ndWCTONA4p8i+ruZnzNkNfJmu37N5B+p8kHFu/Bd43+iIp4HV0Lq+3mYoRX5X+Ze7jx13XvIx/lkD1/8BSWv1fNedYxpYGlh9uPi/xQVw+hzQgU3ix4xzmhzX8MbV0MgZ5kFjHm0+y1g3+wu8kQV0MjSwGljTryR+dKiJ+UPF59OgyH+Tj/E2DVn7A8p/PpG0Tru2aBwcVxrcwHIBnD+bdGCTeKZx9kn5BM2rLdW+MrmiQzX3Avdm5y6dDA2sBtZznE2Qu4TaMK+2Tf4Y4TORkQ05BvwyaZ1Ob+EYOKY0sYFVfLnOxa+7HLoxT4r3CD1krNPlIw1rXv1OzSuVYztQ8xWNc+PzDd0MDayG1fJ0G6DUuaDi8+vQ5ON7WAOOAZsnrs+CGljS14v/P7n4TZ/bOrBJXCbynLFOmZUa0LgqmhjXqHXl8qEO1H5f49z4LKujoYHVkBoO1ryqTY6v8DwbErkv+fiuVfNjweVJ67J1i8fBsaShDSyPXuTP3h3YJK5rnNOmWOPz17h59cbIRHWuZFbuQP3/bZwbncd1NTSwGlTDP9v4eCdWh+baasnH9pbIPDU9DuyZtCantGEsHEea1sCKC7/XlS8/dRGcO8t0YJP4ZeOcOr+safNqD7Vt9KPNIyPPGOtG5++6GhpYDahdcUfMuTY9tcyXKjzvDkg+tnvU8FiwZGRSwlrc05aGouNHIxtYm0SmuQDO/bfPkREd2Cheb6zT5501a14dpKaVzlkdmAOr+UuYxqf+7zrRwGLsuLNseGqdD1V03g2NPJh8bFeq2bHguIQ1mBpZuU3j4fjRwAbWl1z8ps+1kcEd2Cga6/x5IDJfTZpXR6tn5fN/HZgH2xvnxud9uhsaWDWu2TyRv9vs1D7FHTULVXQOLuGF+ZWpxVuS1uCINo6J40cDG1iXuPhNn1PafbyMf8fbjHNt8uEaNK8OUccUGdKBufBd4+wRep0pDawa1+xQG51GZd6KzsO9k4/rTjU4Fgwp74abnmzsb2jzuDhuNLCB5eLXV766M0+OM861yqjEzatvq1+K3NWhBtZ4Y93oPKUrpYFV43p9zyancTmzwvPx3sTj+nxkqeTHgw8nHPdpbX+E0zGjWQ2suPB7i4vfWmR4mzeIAyOXGeda5XtJm1ffUrs0OT8yoM3zYV7j7OMUulIaWDWt1Y42OI3NZys6JxeJPJt4XH+W+HiwcNIx36sDY+OY0bAG1g9c/KbPHR1oGgyP/NdY1yr3RgYla159QN28WPsVc2In49z4bKIrpYFVwzptbHPT6BR3Cy1f0bmZ/VHCHRIeDwZEzks41r/v0Pg4ZjSsgfUvF7/pc2wHNokjjXMts0Wi5tUW6qWxMIt5caZxbnSmRobpSmlg1axGoyIP2dw0PrdWeI5enHhcH4nMl+yYsF7CcS7e0zVaA0taen4v3oETedAFcPps5s4X6WUeTdK8GlV+PVHNEqUD82KeyG3GutH5dzEPdKU0sGpUn+JOi9satokpNrpTIhMjE16R58v/W1M3eMdUdJ6OjDyReFy/nuy4MD3hGG/cwfHRCGpQA2vJyBQXwKkzMbJCBzaK5xvr2madBA2sG9UpXa7owLxYMPKYsW50LngNGlj1qs8hDdi0FA26syNfiGwd2SiybmTFyDKvyJjy//bWrq/IjR13XOTGBm3wJkUWqOhc3Tn52G6U5JjwlYRje3KHx0gjqEENrPe4+M1/B01kRAc2isa6vtm/4s2rg9UoZT7fgbmxknFufPbTkdLAqlFt1q/hBuWZyE2RkyLvaPF4vadrozx23O3l3Vt13eRdXeE5e1biu/6KeTOw4seEYQnndvH482ANLGlXA+t0F7/pc2UHNolrGuda55IKN6+KRwenq1HKrNKB+fF549z4rKcjpYFVk7osEHm0RhuTm7oaVmPHLdj2zezYcfNEFo98JvljbXPKRyo6bxcq7xLLOq77Vvy4cEOy8ZwaWaMfxkkjqEENLBe/+XOwTaJU/V1FvZx3gyN3q0/aF2sv3oE54v1Xjl1oYNWlLqfWYDPyYOTYyLL9PJZbRH4TebZGG727Kjx3t0k+tmMqOq5bJ3z31dH9NFb3lM2+dub6BH/J8HgHxqG16eGF/9DIlsULwNucvyS8KP5CB8alFdmyQ48Pvi0yruY5KHJh5K+Rexu4Edy+gg2sjzTtTrjI2eUjkwdE3vqK9b5eOS4DMqRDc6QT57BNIp9LNpeuS3IO62s20I3SwKpJTXZN3gAo7rrYq4LjWtyZ9bMaNbG+XOE5/JPE43pORcf0MY+6Vq4mR1W8Bj9xkdOaDcZ1CTeSvmhEMXcXiawW2SFyaOSyGjdPTqvY2A+KTK7hOBcvHP9N5IuRd5Xza2GrrfLHgu8mm2c/UDU0sFLUovji4KDkj70dGBlV8XFeNnJY2WjL3ihcqqJjPCLytEc0WzaeP0z2PrHinytpYGlg1eGif0DCDeZtKscc5vSQyGGRJ2vWWHmyYuNcl/fzTSubVr8omlVWUNp1f1+yeberqqGBlaYev0i64b8uMjTZWC8SuTLhY1kz56AKj+/Kicd1WmThiozj0pHnko3fbg05f2pgNeCi/50JN5yHqhzdmNvDI1tFnq9Jo+W5yBIVaXovFpmQeCxfeun8H4tHnIoX0Vsxqdf6Ignn4BIqhwaWWrQxO3bdOZZ33DdJ2CDIsR7Gjjs+cRPr2IqM4bnJxu3MBp0/NbAacOF/VsILf3dJ0NN5Xoe7hYrH9VavyHj+PPlYXl+VsaQl83E7LzZH08SGvU21uDpZLe6OrFmj8T87aaPllxUe04GR+xI3sV7fz+O3XbLxmhJ5rQaWBladLvynJLvwfyaygMrRi7n+4Ro0sbaowDgulnwMiw8eDLQiarW2v5lsDv5U1dDASlGHzyarw+WR+WpWg+IdZDskbLIU75oaXeFxXSEyOWkD645+ezT2xfl4S7Lx2qhh508NrJpf9K8206M0WXKrF7jThzn/oYRzfubsVoExPCnp2N0UWdwqqOW6viDZXHyXqqGBVfkaLOKOn0rVY+vIA8lqsmfFx/TYxHdhfbyfxuwzycbpNw08f2pg1fyi//0JN6FnqRx9nPdfSNzA+lI/j92wyEMJx+0GM7/Wa/rxZI8Ca6SigVX9Gnw70fj/tCHrYjnrouVjen3iJtbCHR6rpdLdBdjM86cGVs0v+o9JuBHdQ+Vowdw/MWkD63f9PG7bJByz6yIjzPraruVFk83H/0ZGqhwaWJUe//k1rypbm/mSPcK1T8XHc6XEDawzOjxWJyQam6mRdTWwNLDqeOF/W8LN6GiVowVzv/hq2ZMJ5/9V/TxuDyQbr+LOnGFmfK3X8n7J5uQ/VQ0NrMqP/xlJxv28hq6PQeWLqTPU6NrKfw1y7LjDEzexVu3QGC2ebFx+1ODzpwZWjS/650m4eX9E5WjhGjgy4Rq4ux/Ha/2E4/URM7326/i6ZHPye6qGBlalx/61kQkJxvzSrhdKN3eNLBt50qNuLRvPC5I2sJ5u+zp48cXtdyUak8safv7UwKrxRf+uCTejCk6r10G2NXB/P47VwcnG6mozvPbrt3gn27Rk83ITlUMDq9Jjf2SSTbt36Y0dt22S9fGLBGO5QuK7sPbtwDybnmQsij/nKg1vbmtg1fjC/28JN+/vUTlavA5OybYO+nGsrkk2ViuY4bVfv+tla2CpGhpYlR730QnGelpkRYtkRs0+nGSNDE0wljsmbmINbOO4PJ1oHD7gmKCBVdeL/nmLx/GSbUYnRVZRPVq8FnbUwOrWOA1JNk43RQaZ4bVfv//n/VdoYGlgtXDcT04w1t+1QF5Ws4Hl45RVr9tuScYz66OE5za0GeKdeBpYjbnoXz4yIdmFf/HC7YVUjxavhZUjUzWw5jpOuyQ7Xuxndjdi/R6XbF5+TdXQwKrsmA+PPFLxcf6PxTHL2g1KsEbOTDKWI5M2sIo7E9/S4rFYOPJUojGwT9bAqvVF/5YJHx+8VeVow1oYEJmigTXXcbox2fHC3VfNWL93J5uXW6gaGliVHfNPJNigv8HimG399q14/SYlGsttkjaxbm7xOJyQ6Ldv5CCggVX3i/4fJGxg+Ztr2rUe7tXAmuP4jCgf4c0yRreY1Y1Zu5nOYRO9lw0NrEqPedXH+BwLY471Kx4lnFjxGu6UZCwHJH6UcN8WjcHqiX7zGY1+absGVmMu+h9L2MBaU+Vo03r4iwbWHMdnzWR3qX3PrG7Eus32/quni68mqhwaWJUc750rPr4TLIpu1XGTitfx9mTj+XTCBtZjkVEt+O3nJPm9j1r4GlhNuOhfPGHzarLK0cY1sa8G1hzHZ5vI9ERjtLNZ3Yh1e16y89iVqoYGVmXH++yKj+8BFkW36ljchXVbhes4JbJUovHcOuldWEf18Xevl+i9X+tY+BpYTbjo/0zCBtbfVY42rokvJ1oLd/fD+Hwt2fFiG7O69mt2cLZHfyN7qxwaWJUc66EJxneIRdHteh5c4TpO72oK5RrP3ydtYq3Zh9/8WJLfeIIFr4HVlAv/PyZsYB2kcmhg9VsD61eJxqf4ouQbzerar9nXlo/kZTqPjVI5NLAqOdaHV3xsP2tB9Kie81W8nocnHNM7Ezaw/tHL37pzkt93jcWugdWUi/6hkdsSNrDeoXpoYHXlX/0wPrcla2C9yayu/ZpdO9k57ElVQwOrkuM8qOvrcNUd1yfcfdWrulb5kdD/JBzPdyW9C+v1vfittyf4XVMja1joGlhNuegfWX4JKVsDaznVo43rItM7sH7bD+PztEcIqdia3SvZnDxD1dDAquQ4r1++R6aq4/ori6FXdX1LxdfLwgnH9OsJG1gTuprU9fuNH7bINbCadNG/ScLm1SSVo83r4q+J1sMP+2F8sh0zjjSra79mr/YYPBpYGlgtGOdvVXxc32wx9Kqui5V3r1W1rnslHNMBkZsTNrH27+bvWzDyXILfc74FroHVtIv+kxJuRn+qcrR5XdyUaD18WQNrrnnarK79mn3BXYFoYGlgtWCcn6nwmN5sIfS6roMq/t6ma5KO6zoJG1jTuvnbvpLk9yxogWtgNe2if0rCC/+NVY42r4up3gc327FZI+Exo8h+ZnZt12vGO4mXUTk0sCo3xmtXfEw/aiH0qb6nVri293W9bD7nuO6XsIl15lx+0zxJfsfbLGwNrKZd9K+adCM6UPVo47pYMlEDa1pkA8eN7r00O7KwGV7LNXtksrn4nKqhgaXB0Yt39yxlIfSpvrtVuL7Fo2pLJh3XIZH/Jjs+Tem6e2z2v+lPCX7DBRa1BlYTL/o/mXATen1kgOrRxnWxYdkYSvE+uMhqGljdTvH1xJFmea3W64Bk76wrcpLKoYFVufEdGhlf4fG8NzLYQuhTjRev+JpZP/HYLpPwLqwLZvNbFo48X/E/+38taA2spl74/zzhBvR3Kkeb18VHEq2HCZGlOzw+KyZuYBUZH/G+gPqs16GRuz0GjwaWBlYfx3fpim9af2ARtKTOVV4z+yUf290TNrHePYvfcWKCu8feYDFrYDX1wv+GhJvPL6ocbV4XpyZ7LG7efhijF5Ln6cgeZnst1uvwhPNvkMqhgVW58d2l4uO5lkXQkjo/WOEaX1aD8b0l2XHqrq67L//3598wwZ/5WAtZA6upF/0Dk248X6969GBjO3NGR5aYTV4bWSWyXPlYXpb1cG8/je0LNcnFkZWtltTr/F3J5tytGlhoYFVyfC+s8FhOtQBaVudb1bmt4zssMjHZser9M/35/1jxP+s1FrEGVpMv+rfPuOFUuUbP2RGRtSPrR/aM7B45rLxj6pRyY3h/5L+RByOPviLFXTfPzCFF42pysjVxcj/V4v4aNbEmRi6KzG+VpTwunJlsvp3tPY5oYFVyfKs8ludZAC2r81kVr/XiNRjjvRM+SrhAZJEEf851LWINrCZf9J+bcKPpBF6PuTcoskBk9cgmkW3LZtReke9Hfh35c+SmmjVK2pFd+qmGF9V0PE+IvNUqTXU8yTbHDlI1NLAqN7YbV3wsP2cBNKaB9Y6ajPNfkx2vjovcVvE/4+4WsAZWky/4ByS806TI/6lenjlW/nOdyMcix0YuSfZ4XoaM6af6fr3m41q86H0LK7nyx5lVEs4tL3BHA6t6Y/utCo/j9IjzUXMaWF+pyTiPiDyR8E6squYvFq8GVtMv+leLTEt44b+M6lVuLq0Z2THy5fJRvgvKR/me0Vxqe6b0Y913bsgY3xM5MrK81V7J48/HPAaPBpYGVh/HdWDkbxX/4tiaFkBjGlgn1misP6bx5NFSDSwNrFZd9O+YcCP5oHfU9Nt8mTeyUNFALB5ZKx+z8mhf/+eyfpwT60WmNmy8L428ufgggKNCZY5N3002h65SNTSwKjeuQyJ3VngcixdiL2gBNKaBdXFXU7U+432i5lOfs5GFq4Hlov/F9wxl2zze6MtNHZ0jW0cOjVwTuSPypIZR5fKjfpwfI5M+htyKFM3bE4uvVzpS9Ptx6opkc2cPVUMDq3LjOk/Fx3GSyd/Sel9T8XrfFBlco/FeKDKhfBRWM8oHHDSwNLB6fdF/R8aXK6tcW+bCkMgKkU3LL/rdoDGUJp/p57lzqRp0NVCKZu+ijib9MgezzZdVVQ0NrMqN6zYVH8c/m/wtrfd9Fa/3PV13BdZrzLfTiOpVHrVgNbB48YJ/WNKN4ttUr6Xz4N3llyifikzUiEiZN/bzHNpODWZkQvn+t6UcXTo2/9ZJNkeejiymcmhgVW5cj6n4OO5j8re03vdWvN5PR4bWcNyP1pDqUaZGNrBgNbB48aJ/t4wbRJXrc923jBwcuUizoTYZXoF59ZQ6vCpXRj4ZGe3I09a594Nk86K483kelUMDq3Lj+kDFv0BoM9+81LGBNbJszqlv9/JjJz0NLP530f+3hBvC61Sux3UeFFkj8nsNhVpmfEXm2U/UYo75XWS5yEBHpZbPveeTzYW/qRoaWJUb00E2ylLBrFbTY9jqatutXOGEp4HF/y74i8cHH0i4CTxI9bpd47GR04oGh+ZBrfPVisy3t6hF974YGdnLEapl826xyKRkc+ATKocGVuXGdA2bZalgtqnxcey76jvXrO6Ep4HF/y76ly3f1ZJt87eZ6s22psVL2F8XOVyToFFZukJz8Fb16FE+FlnA0atPc26jyLRkdfd+NDSwqjemO9gsSwWzZ82PZY+q8Wyzu5OdBhYvv+jfIuFmr3jB+BjVm2U9943coyHQuBTvnRpUoXm4lJr0qoYnFA1oR7JezbnPJav346qGBlYlx3QfG2apYA6r+bFsxfIl5Wr98lzoRKeBxasv+o+zWU9fwzdGvqcB0PiXhA+s0JwcGPmHuvQ6H46MdHTr0Zw7LVmNT1I1NLAqOaZH2jRLBXN8A45n1t7LMzmyjBOdBhavvuh/OuHm7h8qN+NdQ/dFptrwNz6nVHB+rqQufcqzkZ0c6bo93yYmq+8uqoYGViXH9EwbZ6lgLm/IMe1WtZ6RDZ3kNLB49QX/0kk3dh9teN0+EbnFBl9mvmOnonPVe9j6ngsjaztjzXGeLZespsVfOmygcmhgVXJMr7VxFg2sflt/K0Smq/e4syMDnOQ0sHj1Rf9nk27oBjawVoMi74lMtqGXWWRMReftApGH1Kc+X5ms6DzbJ1ktiw+nLKZyaGBVcky9TFqqmCsbdFzbu+G1fsbJTQNLA2v2F/2nJ9zE3dfAOn0gcrMNvMzuUbOKz9911KhluTHiU8qvnmNXJavjo6qGBlZlx1SzRKyd/l+HFza41hs7uWlgaWDN+oJ/SOT6hBu4kxtUo+IdQv+0aZe55LQEc3kvdWppPuAsNmNuDY+MT1a/41QODaxKjucCGiVi7VRiLa4UmdLAOp/sxKaBpYE1+4v+YZHnEm7cvtCA2gyInOVxQelm3pFkXl+kVi3NWS8dLxp+LluqfCQvU+02dxWCBlYlx/MNGiVi7VRmPb6zYTW+xklNA0sDa84X/esm3bRtUvO6bJ/wa1rSf5lWbOATze8b1ayluS4yuuHnso2z1c0VCBpYlR3Pj2qUiLVTqTX5pwbVeB0nNQ0sDaw5X/Qfl3TDNl9N6zE4cqUNufQwD0TmTzTPF4xMV7eW5unIyAafy76drenoCgQNrMqO594aJWLtVGpNLtSQ+n7YCU0DSwNr7hf9ExJu1O6saS12izxpIy69yK0J5/sikQfVrqUpHgffsqHnsoeT1coFCRpY1R3PEzRKxNqp3Lrcsua1vdjJTANLA2vuF/yv8xn5StRhUOR4m2/pQ76bdO6PSNpEr3rWbti5bJGENfqkqxA0sCo7nmdplIi1U8m1eV6Na7uok5kGlgbW3C/6d0m6OVu0RjVYMnKzDbf0MVskXgOvjTyjhi3N1OKdUA06l+2YsEZvdBWCBlZlx/MPGiVi7VRybQ6NTKhhXW93ItPA0sDq3kX/DxJe9D9avCeqJuP/Vhtt8TLoGevhWrVseZZuyLnshIS1GeQqBA2syo7nQxolUtFMc7wbt0HXONSvtns7mWlgaWDN/aL/6oQX/ZdHBtZg7PewuZYW5dqaHI8GRM5Sz5Y3/IcWY1vj89jAyCVe4I4GlgZWC8fzKY0SqWiucLwbt0pkcg1rO9HJTANLA2vuF/4ZN2Q/rsG4H21jLS3M1+rSwCr/+QU1bWlujAyp8XlsSMIXuH/OFQgaWBpYIr3I5Y53466pcX0vckLTwNLAmv1F/9ZJN2O7Jh/3q22opcXZpobHp+UjT6tty/KzGp/LXpuwHsNdhaCBpYElooHV47V5dANqvKuTmgaWBtasL/p/m3QjtnjiMT/bRrrteSLy4Ctyd+Svr8hfItdHHnrFf/a5ZL93UmSlmh6jRhV3XJrTLct2NZ0nuyerwyOReVyFoIGlgSXSi5zU4OPcil2P2dW/xs9GhjmxaWBpYL36on9Swg3YY0nHelDkMhvoHmVaOUeLu3AeK5tL/4qcFvlSuWndILJWwxu7RcNtWM2PVe+OPGVNNPsvAOYwP65LVoOrvcAdDSwNLJFe5lsNPs491qA6/8uJTQNLA+vlF/wrRCYn3Hwdn3S8/2zjPNfcF/lD5MuRTSPrRVaJLNqpBk1xV0TknmTjdllDjlnzF+/6sk76nN/UbF4MS1iDE1yFoIGlgSXSyxzc0GPcMQ2s9buc3DSwNLD+d9G/bWR6wgv/TROO9TE2za/K/ZGrysfDdqhQrUYnfO/SJxp27Fqz/BKpddT7bFaj+bBBwvH/mKsQNLA0sER6mbc18Pi2dENrXTxKOMQJTgNLkV686D8s4UV/8TjZksnG+XM2yzNye+TjkSUiIyIDK1ivlRKO68gGHr8GRl6f8MtzVcl/6/LYafyOPT3GCRpYGljSoGzcsGPb8MhzDa73BU5wGliK9OJF/01JHzEbkWiMt2/4Jrl4Z9XJkY9k+eJW/DkPzLYmHMu65te/NKV6nO1rUv9fJhv3Ka5A0MDSwBLpQ+Zp2LHtGDUft5WTnAaWBlbODdc1ica3eF/PhIZujIsv/K2ZdF3cmmysz3I0m1G7zSOPJn00uj8ysSZ1v817HEEDSwNLGpLpkXkbdFxbV80b2rjUwNLAesUF/05JN1z7JBnf+cq7xZq0Gf5L8S6ryEIaux3N/s46r6rhlsWLyjWoupUDktd6aMIx38YqRQMrRQPrKhtmqWCeiAxtyDFtRORRNZ+RXznRaWA1eYN3VtLN1hpJxveIhmx+ny6/rrh4TdbFNglr8A5nndnWc97I7yJPalTNNjdEhiSu8XsSvsdxWasTDawUDayzbJilgrktMrghx7Rj1ftVWdXJTgOriZu64m+s78n4Avck47tVQza++0cWq9na+EHCOizsrDPXui4Q2aJ8tFXTqkYvFI8/+9nJxvqhyCirEg2sFA2sP9osSwVzWWRgA45nH1LrWWZC151paGA1bDP32sgzCTdZf0gwtiMjz9X4HTxPRE4omqA1XBcDyscgM9XjeWecHtd54cjRkTs0rmbkZ0lrOTDhewZvsQrRwErTwDrMZlkqmHMbcCwrvjr4kFrPNj9ywtPAatoG7g1JN1mfSTC236/xJrdoXI2s8boYkvC9ZUc54/S63vMUjyRHLtLAGvNC0houV7yIPtlYf9/qQwMrTQNrnyTjuH1k/siC0ojM14Bjmcd3554NnPQ0sJq0cTsy4QZramSDio/rW2q6uf1n5K0NWBcjEtbm9c44Lan9WpFjyse7mtrEem/Cum2a8G7XTa04NLDSNLDenWQcv2zyU6Pj2G6aU93Ks113qqGB1ZDN2oMJN1fPR5as8JgOilxVw03tsQ1aFzsnXBNDnXFaPg8OSfhYWiPXevyZx7nTDTSw2jie6ycZxwNMfmpyDBsYeUpzqtv5qkmjgdWEzdmiSTdXj1V8XDev2Wa2+Grbeg1bG6cnq9FNkcHOOG2ZC8PKhub9DWpgXZewTpclG+OLrS40sBI1sF4c0wzjeL7JT02OYZdqSvU4bzFxNLDqvjH7aNLN1Y8qPq51umPjkoauDR81YFbz4vORR7wHy5ptQb5pRaGBpYHVhvzd5KcGx6+PaUb1ONMj90WGmUAaWHXejJ2adHO1ZYXHdJ8abWIPLL7G18B1sXLCWn3J2aZj82NU8RGJBjSxNk5Uk62SjW3xrq5trCY0sNI1sB5LMI6+SEz2Y9f8mlF9ymEmkQZWXTdhg4vHRNwZ0PJxvb4mm9dvN7hB8cGE9Vrb2abj82SpyJ9r3MA6MlEtjko2tlMiq1pFaGCla2BdnKKBNXbcEAuApMetAZEbNKH6nDeZTBpYddx8DS1f/JxtU3V5hcd0u5psXPdqeGPi25q69GC+vL2mDazLk4z/gMiNycZ2YmReqwcNrHQNrF8kGMfJkWUsAJIet3bSfGpJrjWZNLDquOl6Y9JN1XEVHtMHarBp/ZqGxJhLk9XMC1v7f84sH/l7zRpY05KM/aiEX9O9wqpBAytlA+vwBOM4NbKOBUDCY9YqGk8tzSEmlQZW3TZcP026qfpwRcfzDZGpyTespzhipXwJ/66qVpm58+saNbCKx9xGJRjzZco/a6ax/aLVggZWygbWR5K8yHlbC4Bkx6shCR4dnJawibW+yaWBVaeN1uSkm6qVKzqe30m+WX2ieKxUA2LMmIQvg17FmaZSc2i/mjSwiob8ignGe6eEYzvcSkEDK2UDa/MkY7mvBUCy49VeCR7N3SNhA+tGk0sDqy4brBV82l1D8BUb1YUcrbrqeEiy2j0WWUTlKjePvlSHRwgjqyUY61OSjev9VggaWGkbWMsmGcsLLQASHavWT7Cmrir/rJckbGIdbpJpYNVhc7Vz0g3V2RUdz48k36j63Or/avlQstrdFRmkcppYbbq7b7ME45xtXP9odaCBlbSB9eK4Gkto7Zq6NcGaWrj8s65bvmcu07G1+DLpcl1feEQDK/HG6pikG6qxFR3PqxJvUp9xlJpRx+Jl0M8lq99vVK7Sc+qC5A2szSs+vmsmHNdvWRloYKVuYGW5A2Nti4AE6+mwBGvphJn+vAO77sbKdxfW5SabBlb2TdU1STdUwys4louW74/Kuknd0lFqRi3XSPgo6PtVrtJzalDkEQ2sto3vpxOOqzWLBlbuBtYBScbzxxYBFV9LGyZ5MfqKr/hzL5T0q4T+Ak0DK/WmKuNmqnhUakgFx3K9xM2r+yPzOkrNqOW7ktXvSVVLMa8+roHVtrH9TcJxXcmqQAMrdQNrySTjeW/Xl92gumvpjgTr6KTZ/Nl/kbCBVTxKONrE08DKuJl6Z9LN1N8iAys4nscmbmAd7Aj1sloelax+x6pamrn1gAZWy8d0YOQGHyIBDawOj+vQyBNJNqvLWAhUdB39LsEamjyHP3/xLqzpCZtY/zb5atHAOr5pG6kzkjZbjqjoeKZ9SbOj06tqeX2yGu6gamnm1sYaWG1pYD2fbExvsRrQwErfwBoUuSbJmH7KQqCCa2idJI8Ofm8uv+OXSR8l3NMkTN/AOrNpG6kJSRsum1RwLFdN3MA619EpdTOyeFfXCqqWZm7Nn/ALl0UDa9MKj+kbEh53x1kNaGDV4Mt5Y8f9KsmYPmQhUMEG8ONJ1s983fgtUxI2sJ6LjDAZ51jb71S8huc0aRO1QmSSu4VaNp57J25g7ejo9LJavj1Z/SapWro59s9kc2xaZLUKj+eRCY+77ppEA6seDaxdE43rOywGKrJuBkTOTrJuPtrN3/TTpHdh/ceEnGNdP1nx+v2pSRuorZM2W66p6HienXQ8p0TWcnR6WS2PSVbD36taujl2QLI5NjWycoXH89GEx95hVgIaWLVoYA1JNK5/iQy0IKjAutkwyZp5ODKsm79pZNIGVpHdTMrZ1nW3itfupq6GcEM2UIcnbbh8oYJjOahorCUdz+Ix0oUcnV5Wz2zvv9pQ1dLNsU0TNrrnr+hYLpTwuPtMZLiVgAZWDRpYL47vFUnGtXjRtC9O09/rZb5Ex6Jde/jb9kncxBpgcqZsYP27SQ2s25I2XNap4FjOE3k46Xg+68j0slqOiNyX6dEuVUs5zxbN1sCq8FhulvC4W3yJ0iYSDaz6NLB2SzS2f7Ig6Of1clqStXJ7L37bPJEHkjaw/mZypjy+P9GIBlb5xaaMzZanIotXtOnxgkcya7E2lkz2briLVS3tXMt0nPhvhcfxkwmPu3cUf/FhFaCBVZsG1vKRqYnGd1OLgn5aK+9MdLfim3r5G7+a+C4s78nL+RcUjWhgfTBps+WuyOAKjudbEzew/E3cy2u5ebL6HalqGlgdyEkVHsfvJTzuXlk8em4VoIFVmwbWvJH7Eo3v3y0K+mGdLBF5PskaubqPv/U/SRtYU7ve5UW2Bta6Tdg4ZX3h+HkVHc8jEjewDnRkelktD/MFSTSwXpVPV3gcr0543L1cAwsNrBo1sF4c418lG+MPWhh0eI38NtH6WLqPv3WrxHdh/dVkTdfAqvfxPC6ah0buTNps2bmiY3pR4gbW3o5ML6vlHcnq91pVSznPXpdsni1b4bGcnPC4+5eIl6WigVWvBtaYZGP8XNcdMdCZ9ZHpsbqjW/Sb703cxNrSpJ1Rx48nqNcFdd84LVZ+ASljs2VQRcf0ag2s2qyPVPVTsbTzbCMfCmjJOM6f9Lh7hlWABlbNGlgvjvOdycb5txYHHVgXi0UmJHr31eIt+t1vStzAmuhRwhl1fEeCej1V943TG5Je8N+r6dGWHOrINKOO2d5ldqWqpZ1r+yeaZ1dXeBx3SHrcPdMqQAOrlg2s3RNuVL9qgdDmdXFVovXw8Rb/9l8lbmKdYvJ21XCbJPWq71M5SV94W+SHGlg2Um2u46eS1e73qpZ2rp2faJ6dWOFx/GHS427x2PlAKwENrNo1sFZK9jXCItMiq1kktGlNHJhoLdzeht+/SuIGVpEtzOE0Day313njdFfSC/73aGC1JQ84u86o4/HJane4qqWcZ8V7CG9PNM8+VeGxvDHpcddL3NHAqmMD68WxviPpRnU5C4UWr4VFI5MSrYH3tmkcTk3exFqg4fP4reWjpe6m7aeL/VFJL/anRtbRwGpLni021JoKYwZEzk1Wux+4Oko51xaOPJ1onr2uwo3Ap5Ied2+KDLEa0MCqZQNr3aSb1PERjXVauRbuSjT/z2vjOAyOPJG4gXVMw+fx6kkaWNfVdeP0gaQX+5Mi82lgtW1sx2gqjBkYuSFZ7a5+DRnn2uaJ5tiECo/jImUDPuU7Hf3FARpYNW1gvTjeWe/CeqLrhdvQ9zWQ6dHB4i6xRSIDjMdss2GD5/JqSRpYL9Ty+B0XzD9PerH/74qP6wvJ8/amn2djDAZHnvQVQjow136faI59o8LjuHLZgM94zJ1W5b+UQQNLA6vP471/4o3qwxYMfZz/Syeb8yd3aFyeT3xceDAyqqHzecFEDayT6rZpKu4wuTLpxf6XNLDamtM1FboaWJMT1m5pV0qp5tlo86tlY7lB2QjKetzd0IpAA6u2DayFkt9t8YgXu9PLuT80cn+quw47NzZvTn5cOEoDq/J5tlaNxnKD/kzSC/3FKj62l9agiTWqyefb+P3zJK3bTq6WUs2zTB8KuL3Kj7nFn+1tyY+5P7ci0MCqaQPrxTE/NPlmtd5ftaJd8z7b3Yfv6+DYDIhclfyYsG1D5/W0RDX6UJ02Tqsnvch/KsHYXlWDBtaFDW8svCVp3f7kainNHJuveKdUorn164qP52drcNz1Inc0sOrbwBoeebwGTawfWUB0c85vlGxuP97W917NeoyWTn48uKPjY1aNuZ3p8c8pddo8fS/pBf55Ccb2mBpspKZE1mpwc2HrxLVbwlVTijl2c7J59aaKj+dBNTju7mxloIFV0wbWi+P+kxo0sIr8M7KUhcQc5vp8kYcSPWpVZIV+GqvsL3T/cgPn94XJalSPL9Unfb9Pka8lGNs9a7CReqmJ1cgXC8fvPjBx3W525VT5+XV0sjn1UIIxPa0Gx9xLrA40sGrdwBpakwZWkQmRcRYTs5nrRyWbz7/ux7FaqPzyYebjwWYNm9+HJavP1Mji2TdPyyS+wN8+wfhuXJMGVpEbIsOTze/lWvC/cWjyun3O1VNl5+fhCefTpxKM67k1Oea+yypBA6umDawXx/6AGjWxitwa2cKiYqY5vnnCebxiP4/ZzsmPA9c3bI7vmbBG47v+EiXxBmq7xBf3iycY3/lq1MAq8mhk0YqP+bLFS5AjT7fiMdMaNLCKbOIqqnLz9MSE8+jZ4i89EoztXTU53k6MLGm1oIFV2wZW8QWrR2vWxCoeE7s2sojF1fhjS/Fi8geSzd9DKjJ2f05+HPh5g+b5pklrdEHmTdQ3k17YP5JkfIeWjZQ6NbGertJdGPFnWSeye+R3kXtf8WfdVwNrzPQy27+GKszXdSM3Jp1LVyUZ4ztrdLwtvmQ7wMpBA6uGDawXx3/3mjWwZs5pkXdaZH2aH8XLz/eJ/CoyMtmf/bfJ5utDlXkJ+dhx69Rg/b++IWt0UOIanRMZnHEzdWnSi/pjk4zv4MitNWtgvZT/Rt7Yqa9lxb9nYGTeyMjIOyNndOPPuLYG1stySDEnXRH2y7FgeHHcSj5/Vkoy1lNqdqy9Pdvj22hgaWD1qAbX1biJVeTuyHtSP7LS/jkwODKs6900xafux467aBbvGVs+0e/ZIeE83b9iY3hY8nV/eYPW72OJ6/SHyMBsm6qsF/RrJxnfAZFzatrAmnlzdVRkwzaM3/KRT0dOKput9/Xkz9aiP8OhNavXP9tRK2Y7f1aP/CLyTPJ5c7HzWr+muKtsfSsKDaxaNrA2qHkD66UUj5Od2biXPM++7utFPhs5O/KvyCNzGb+NkvyugQkfjb2rguNY3NlzT/I1f1RD1vLNNfhLhrdkucjfPOmF/HORYYk2U4fVvIE1c6aWL1DeN/LmyKqRFSNLRxZ7RcZEVoisEnl9ZNfIEZHTI7e04M9ykwbWHPPHsj7+RrS1631o+R62Yj5fX6P58jYNrH5/FLj4515Vfw8hGlgaWL2qw6kNaWLN/CWs70bemP6LWHNuQCwSWS6ybvly7lMit/dyzL6c5HdflvC9batXdCw/mHydPx8Z04Dz6Nk1OS4fG1mi6hf5v0x6IX9Lpx5ba9E4b9ygBtasGlqTypc/P/mKTCoztU3/7l9qYM01k8v3hhW/cUE7uV7PkUXKhtUfIg9GJtRsnjycrB51P64Wd/OdH1mvzeO4YHkH7HpWuQaWBlbb61DctfLvhjWxXsqTkfsiP+t6IXLeGq4W+UDkh+VjocWXvh4vH/9rxThdmmAMtk04/66p+Jj+Of3dPfU/jx5Xo+Px010veK9qIyvxy8X/kHCD+4J0PB9rUe2+3KAx+0/5BcdPRrYtNq7lI3DFe8dGNTRjyjvVijsK3xb5UGSfyI8il0eeaMC8WNfxttLNrN9EvhjZqnwv4WrlXa6zms8LlvN5tfKfm5f/vV0iX4ocXz6uPWmmf8cbdXk0sDSwOlKLLRvawJpVbo38JLJXOUeLO5gW6/gLh8eOGxV5bWTVrkcfx47bLvKxyJGR30T+1tH331R7/o6MTEo410ZUfFxHt7AJ2l8ZV/Pz6Idqehwu/lLla2Vj+nVd7+nr+/G0+N9Zu3wv4n6RcyOnd/cCf5nEdwnsm21ex5/5Qg2ljj9u85YW1e5tDR7DItPKu+Sammllps/0GFeTcra/MKjdmp3Wg3ldvBB/lC6PBpYGVsfqcYjm1Swf8ZpWPnZYZHLkkvKxna9GvhDZuMyb59rkerERtfFM+VLkK5FjIn+NnF/+e6eU/75pZaZXYCzWqOi8HZT0YwT7JDku/LgGjxLOU+Pj9poNOgY/X96h9feuDx+8eOycOQdFzotcWObS8lj6yuPpzP/7f+nuBf5GiS/SV0m4oXqvplJHM7FVX0wr70AyptLUrKqB1eiM1+HRwNLA6nhNbtW0ktlk34rO2Q8kHMtiQz1/ouNC9he631zz47bjU+9zUXcv8A/KekGdcU7Hn/u1NfgKWaY81aoX/cf/zmDjKQ3NIUmPt3eqXcvyfR0eDSwNrI7XZDEbGplN/lzB+To66Vjukuy4sFVF7gLsSz5X4+P2eY5Pvc5D3b3A/1fSi+kzk26oBkbusRnqWP7bwtoNLl9Cb1ylSY+iFS/3H5T0eHuvGrYsG+rwaGBpYPVLXbaxqZFZ3sVStUexirsn8o3jxUmPCxfV4FG0UTU9Zr/D8anXebC7F/hZL6Y/kHVex5/9AJuhjuWEFjcfbzCm0rBskPhYe5b6NfeOZzSwalSbn9rYyCy+2DiiQnN096TjuFnSY8I8SV+UP3Nur+nxesHy/XyOU+1oYMVF6Q5JL6YnR1bMPLdtiDqW97ewZgMi5xlTaVD2Tn6c/YUatiTX6e5oYGlg9Xt9TrO5kVdkmYrMzTWSPtJ2YvJjwv41mMM71PBYPbSrOef41LYG1mlJL6YfLT4Bnnxj9ROboo5kZIvr9j1jKg3JzZF5kh9n91DHluRXujsaWBpY/V6f4ZG7bHBkpuxekbl5ScKxey79I2xjxw2I3J98Dhcv0F+ohsfrXzs+taGBFRekQyK3JL2YvjP7vI7fsHH56XKbo/bloTbUbRvjKg35+MHgGhxnt1LLlmR/3R0NLA2sytRJE0teyj8rMB+PTzp236zJ8WB0DebxFZGBNTtOb+z41J4G1kKRJ5NeTB9Zh7ntBcNtzyVtqpuxlTq/tL3455trcoxdq3zkXG37li11dzSwNLAqU6fVvF9FKrEGxo5bJTIt4bg9ULNjQh0eL35/DY/V4x2jepz753Zhv0Lii+lNa7K52trGqK05tk11u8DYSo3z7rpcO8RvWSoyQU37nAV0dzSwbN4rVatFypd42/DI2u4G7PHX77ao2fFgoZrM5QVrVpdPOT61+LweF6Tf8DWkSmywLrU5als+06aabWFspaY5sG77vPhNT6trn/KIzo4GlgZWJeu1bPn+GBueZmeXfpp/xyUdr9sig2p4PHhvDeby72tWkyXKd605TrWwgfVA0ovpf9Rsc/U2G6Rcj72Uj98+YXylZjmkjnu8+F3Hq22fcpTOjgaWBlZla7Z85Cmbnkbn2H6Yd2sl/ergC12N33oeC4ZEbqrBfN6kZnX5q2NUi87rcUG6iE1WpTZY59oktSVLt7Fm5xtfqVEOrev+Ln7b6urbp2yts6OBpYFV6bot5J1Yjc5F/TDnnkk6VkfV/FiwYg3mc/FOtYVrVJP5HKNa18DaKfELht9eww3WsMhzNkp5HjUtXw5tnKUOL2w/8DU1F7/xWfXuVYov5Y7UIdDA0sCqfO2Wjtxp89PIPNbhufajpOM0veuLffU/FnynBnP61JrV5EeOU61pYP006cX01MjKNd1gHWizlOtR0/h3/NY4S/K8qwl7u/idP1LrXuXu4i9YdAc0sDSw0tTwWhugRmZkh+bXeonH6DMNOQYsGHm+BnN6gxrVZE3HqD6e1+NidEDkCnfVVHKT9Q8bppZlvw7Ua92yqWq8JeOdNW9pyp4ufutWat6rXBYZqCuggaWBlaaGQ2tyB4b0LB/tUGPk2aTjc33DjgPb1WBOF19ZXaBGNTnccarvd2Bl/az46TXeYA0o3032lE1TS7J6h+r2T2MtyXJbZHDT9nXxm59X+x7nxzoCGlgaWClreagvFDYql3RgTmV+DOoDDTwGXFCDeX10zWpyh2NV7+/AWifxxfT7G7DJ2timqSV3lwzuUL0GRSYac0mSgyPzNHE/59jaq2yvE6CBpYGVtp5r1+RRIpl7JrZ5Lr0j8dj8paHrf5WazO131agmGzlWdSvrzOoi/rjEF9ONeJQhfue+Nk59fm/LoA7W68PGXCqe8U34C4BurNWbzIUeZX5dAA0sDaz0dT3Xhqj2mRp5XZvmz6KRSeVL0PM19saOW6TBa/+I5PO6mHOPdOwdb52pydcdr+aa18/qAn560gvpWxu20TrZ5qnX+WvxSGaH6/UL4y4VzdFNvetqFut0F/Oh23nMjNHA0sCqTW3fa1NU6xQb/c3aNHdOTTwuJzZ83c8bubcG8/vIGtVkUOQqx6weNLDignS5xBfTv27gZusnNlG9yvEdrtOA8p9XGHupUC6MbGjn9qr1+mdzo1v5qdmigaWBVav6Lh85Z6aGh41SvfKFNsyZjyQej+e7mgXW/S41md+b1qwutztmdb+B9d7EF9P7NnSz5U6snmfvfqzXZOMv/ZziQxDb2q3Ndo0uGHncPJlrPmi2aGBpYNWyzjvZINUyv2/xPBkVeTzxeOxgsc+o5R9rML9vq1VDsvjC4thxjzluda+B9Y3EF9MbNHjD9VObqR5l3X6s1eLlV97UQTqdhyI7R4a5WpvrOn2H+TLHTO3Ul1zRwNLA6pdaLxL5ro1SrfJYi+fI1YnH4p7IEAt9Ri2XqskHHX5as7oUTaybHbvm3sC6PPEFdaMPRPH790/8/rKOpiL1ulYtpEP5T9G4coXW4zV6oLkz2zwZWdQs0cDSwKp9zVf2afdaZWiL5sXnk4/DBhb3q2p6bE3m+GY1q8tCkQcdu16W9V95wZ71YvoqR56u+m1a/s24DdYcvkBYkVoNjByqHtLGFO/IWyky2NGx1+v0t+bRLHO/2aGBpYHVmLoPjKxuE1WLvLVFc2Jy4jH4lUU927reVYtHCetXl1HuxHpZPj3zhfrWiS+mP+eoM6OOS0QuscGa/aa+YvXaJnKnukgLMq38UMAhTb8jtcVr9HJz61U53czQwNLAauQc+ETkJhuoVLkisl9kcAvqXzQz70w+HstbyLOt7xY1mfNH17Q+5ziedWWPmS/Sf534YtqjDK++u2c3m6yX5bnIwVV8/0/RbIgco0bSyzwa+XQ5jwY6ArblePp788wL3G1uNLCY0cR4XQ0aGXVO8RXJwyLzddWrdbX/VPJx+ZYFPNca/60G87+4Q3DVmtZnnONb2cCKi9EBib+69HBkPkecWW68loyc1OBN1nWRr0TelKRey0WO8hiozCUPRn4e+VQxZxzpOrY+DzP3ZsQ5VwNLA4tiTmweOd6GqhK5O/L9yNvaVOvlko/PPRZst+o8PPKMRwkrXaMNI/dpYI0es3R5h0rGC+mrI4Mccea48VomcnMDGiOTI49Fvh+ZP3G9BkW+U74oeYrNcmNTfJRhYuSZ8jG2PSKLOKL169rcIjKh4fNyvJmggaWBxSzmx0GRiZFpmkkdu8vkychpkTXbXNuhNXiZ/yct0m7X++CarJEf1rxOJ0emNLmB9cbEF9MnOdJ0e/O1Tk0fhbko8qHIGnV6hKp43DGybuSgYtOoodOI/CtyYvkI8FsiK3ifVeXW5fKRc2ZqMjZtjv7BLNDA0sBiNnNkcORNXe+gefExNo2m1udPXc2YF1+sP6xDdd0/+Zj52FfPa/5QDdZK0dxZuOZ1Wi9yeVMbWF9OfDG9g6NMjzdgC5fvXLo76Yuq74lcGvl4w+q2VPHBgsiFkVsjD0We1fSpfCaUd7g+ELk3ckvkysgpka9F3l487uvIlG49fqx8hL1p83kv1dfA0sCim3PmvZELI//VeOpVnux6FGrsuFMj7+6nGq6RfAynRpayGHtc92Vqsob+3ZB6vT9ya9MaWFdlvZh2hOnTBmxYeTfBQQkeLyzueNgpMjoyXO26Xtg9qviAQfmIaPEV0V0jP4wcG/lt5MbIDdK2FE3U48oxL/KTyPsjO0e2L99pVmSxMvMX7w5yR1Wt1uG85d1yTboT690q39gNzTs1sOjl3BkRWbG8k+dhjak55tJynJbquntk7Lgh/Vi3eSJ3JR/PCy3AXtV+QOSPNVlThzekZsWjvhvU4HHfueVrL12E71P8rWrkC8nyeUeYlm7GikcM9ys+kR65tnz/Tqfvrvp3+UjgceXGcE2VARL8ZUBxd+Q/a9q0uq38cEDRnB2s4o3d0BQXx0skijtbqzuXiheCfzxySuS6yIQGNqrujfwlclLk0113OlWzibFE4iwZ8Z7k3td/UDmGSyTPIg2sXfGi919HHqnBsfKBspn6ya56whw2ZAPKLBv5aPli9FbeqVc8TvWXyBHlnVWLz/TvHKACQNLjZvH115/VoGl1XmTsS79LdYG2NUle/OeY8kXwV9awWfVE+e6qT5XvrhpYNoccW4F2H2PXjfwj2THz6sgXIos7TtKqTdqIyAKRtSKvL1P8v7ctHi+JvGum//+XsmpkweK/awSBBhwnh5RfLTyofOdZVRtVxeOwJ5d3Nb8zsorqARXYdBV3TmwV2bnrkZGx434Tubhi79Mq7m64O/LX8otgR3e9n2XsuB0i60SWj8yrmEAFjqnFo9xvjRwQOb0CL+q/v/wLi5+Uzap3RVZVKACoiPGjx7w58u3IzZFHI89Enm/DOwinlI+AFx95eKL8dxUfEDgjcnDkvZGRKgIk3oyNiqwd2TPymciJkdPKZtIDM+XRyONzyYOv+O8UTbIzy/+930W+GPlcZJuuxhRAfY6l20a+GTm/fEdhcUx8KvJs5Lnya45zy6TyP1/kmfJ/47HyeHpz+RcQxbv9Ptx1RxgAkMv40WOGlo9OjynfP/jW8iMAn498MfLT8lHE2eVH5X92z/L9W8UdsJtE3lS8OzCyYvnl0vm9twpo8OaseBH58DkGgJeOmfN1vTfsxQ9JLBtZK7LmXLJK+b604r8zujy2DjOYAAAAAAAAAAAAAAAAAAAAAAAAAAAAAAAAAAAAAAAAAAAAAAAAAAAAAAAAAAAAAAAAAAAAAAAAAAAAAAAAAAAAAAAAAAAAAAAAAAAAAAAAAAAAAAAAAAAAAAAAAAAAAAAAAAAAAAAAAAAAAAAAAAAAAAAAAAAAAAAAAAAAAAAAAAAAAAAAAAAAAAAAAAAAAAAAAAAAAAAAAAAAAAAAAAAAAAAAAAAAAAAAAAAAAAAAAAAAAAAAAAAAAAAAAAAAAAAAAAAAAAAAAAAAAAAAAAAAAAAAAAAAAAAAAAAAAAAAAAAAAAAAAAAAAAAAAAAAAAAAAAAAAAAAAAAAAAAAAAAAAAAAAAAAAAAAAAAAAAAAAAAAAAAAAAAAAAAAAAAAAAAAAAAAAAAAAAAAAAAAAAAAAAAAAAAAAAAAAAAAAAAAAAAAAAAAAAAAAAAAAAAAAAAAAAAAAAAAAAAAAAAAAAAAAAAAAAAAAAAAAAAAAAAAAAAAAAAAAAAAAAAAAAAAAAAAAAAAAAAAAAAAAAAAAAAAAAAAAAAAAAAAAAAAAAAAAAAAAAAAAAAAAAAAAAAAAAAAAAAAAAAAAAAAAAAAAAAAAAAAAAAAAAAAAAAAAAAAAAAAAAAAAAAAAAAAAAAAAAAAAAAAAAAAAAAAAAAAAAAAAAAAAAAAAAAAAAAAAAAAAAAAAAAAAAAAAAAAAAAAAAAAAAAAAAAAAAAAAAAAAAAAAAAAAAAAAAAAAAAAAAAAAAAAAAAAAAAAAAAAAAAAAAAAAAAAAAAAAAAAAAAAAAAAAAAAAAAAAAAAAAAAAAAAAAAAAAAAAAAAAAAAAAAAAAAAAAAAAAAAAAAAAAAAAAAAAAAAAAAAAAAAAAAAAAAAAAAAAAAAAAAAAAAAAAAAAAAAAAAAAAAAAAAAAAAAAAAAAAAAAAAAAAAAAAAAAAAAAAAAAAAAAAAAAAAAAAAAAAAAAAAAAAAAAAAAAAAAAAAAAAAAAAAAAAAAAAAAAAAAAAAAAAAAAAAAAAAAAAAAAAAAAAAAAAAAAAAAAAAAAAAAAAAAAAAAAAAAAAAAAAAAAAAAAAAAAAAAAAAAAAAAAAAAAAAAAAAAALzK/wOoPkc1i2YEOgAAAABJRU5ErkJggg==;" parent="1" vertex="1">
          <mxGeometry x="30" y="389.87" width="61.91" height="32.5" as="geometry" />
        </mxCell>
        <mxCell id="x5C6FpIDevCYcziMVME_-16" value="" style="shape=image;verticalLabelPosition=bottom;labelBackgroundColor=default;verticalAlign=top;aspect=fixed;imageAspect=0;image=data:image/svg+xml,PHN2ZyB4bWw6c3BhY2U9InByZXNlcnZlIiBvdmVyZmxvdz0idmlzaWJsZSIgdmlld0JveD0iMCAwIDM1NC4zNDYgNjU5LjA1NSIgaGVpZ2h0PSI2NTkuMDU1IiB3aWR0aD0iMzU0LjM0NiIgeG1sbnM6eGxpbms9Imh0dHA6Ly93d3cudzMub3JnLzE5OTkveGxpbmsiIHhtbG5zPSJodHRwOi8vd3d3LnczLm9yZy8yMDAwL3N2ZyIgaWQ9IkxheWVyXzEiIHZlcnNpb249IjEuMSI+JiN4YTs8Zz4mI3hhOwk8cGF0aCBkPSJNMTE3LjE1MSwzNDkuNTkyYzAsMC0xNy4yNjUsMTAuMDQ5LDEyLjMwMSwxMy40NCAgIGMzNS44MjQsNC4wOSw1NC4xMywzLjUwMSw5My41OTYtMy45NTljMCwwLDEwLjM5Nyw2LjUwNCwyNC44OTIsMTIuMTM3QzE1OS40MzksNDA5LjEyNyw0Ny42NDQsMzY5LjAxMywxMTcuMTUxLDM0OS41OTIgICBMMTE3LjE1MSwzNDkuNTkyeiIgZmlsbD0iIzAwNzRCRCIgY2xpcC1ydWxlPSJldmVub2RkIiBmaWxsLXJ1bGU9ImV2ZW5vZGQiLz4mI3hhOwk8cGF0aCBkPSJNMTA2LjMzMSwzMDAuMTA0YzAsMC0xOS4zNjcsMTQuMzM5LDEwLjIyMSwxNy4zOTcgICBjMzguMjcxLDMuOTUxLDY4LjQ4Myw0LjI3NSwxMjAuNzkyLTUuNzkyYzAsMCw3LjIxOCw3LjMzMiwxOC41ODUsMTEuMzM5QzE0OC45NDMsMzU0LjM0MiwyOS43ODIsMzI1LjUxLDEwNi4zMzEsMzAwLjEwNCAgIEwxMDYuMzMxLDMwMC4xMDR6IiBmaWxsPSIjMDA3NEJEIiBjbGlwLXJ1bGU9ImV2ZW5vZGQiIGZpbGwtcnVsZT0iZXZlbm9kZCIvPiYjeGE7CTxwYXRoIGQ9Ik0xOTcuNDk0LDIxNi4xNDVjMjEuODE4LDI1LjExNS01LjcyMSw0Ny42OTctNS43MjEsNDcuNjk3ICAgczU1LjM2Ny0yOC41NzcsMjkuOTQ1LTY0LjM4Yy0yMy43NTItMzMuMzczLTQxLjk2Mi00OS45NTEsNTYuNjIzLTEwNy4xMjRDMjc4LjM0Miw5Mi4zMzgsMTIzLjU4NywxMzAuOTc5LDE5Ny40OTQsMjE2LjE0NSAgIEwxOTcuNDk0LDIxNi4xNDV6IiBmaWxsPSIjRUEyRDJFIiBjbGlwLXJ1bGU9ImV2ZW5vZGQiIGZpbGwtcnVsZT0iZXZlbm9kZCIvPiYjeGE7CTxwYXRoIGQ9Ik0zMTQuNTQyLDM4Ni4yMDJjMCwwLDEyLjc4MSwxMC41MzYtMTQuMDc3LDE4LjY4NCAgIGMtNTEuMDcxLDE1LjQ2OS0yMTIuNjA0LDIwLjEzNS0yNTcuNDcsMC42MTljLTE2LjExNy03LjAyLDE0LjEyMS0xNi43NSwyMy42MzUtMTguODA1YzkuOTItMi4xNDYsMTUuNTg0LTEuNzU0LDE1LjU4NC0xLjc1NCAgIGMtMTcuOTM3LTEyLjYzMS0xMTUuOTM1LDI0LjgwNy00OS43NzIsMzUuNTQ0QzIxMi44NzEsNDQ5LjczNiwzNjEuMzM3LDQwNy4zMTcsMzE0LjU0MiwzODYuMjAyTDMxNC41NDIsMzg2LjIwMnoiIGZpbGw9IiMwMDc0QkQiIGNsaXAtcnVsZT0iZXZlbm9kZCIgZmlsbC1ydWxlPSJldmVub2RkIi8+JiN4YTsJPHBhdGggZD0iTTEyNS40NiwyNDguODIyYzAsMC04Mi4xNTUsMTkuNTE5LTI5LjA5MiwyNi42MTMgICBjMjIuNDEyLDIuOTk5LDY3LjA2MywyLjMwOSwxMDguNjg1LTEuMTgzYzM0LjAwNi0yLjg1NCw2OC4xMzMtOC45NTgsNjguMTMzLTguOTU4cy0xMS45ODIsNS4xNC0yMC42NTcsMTEuMDYgICBDMTY5LjA4NSwyOTguMzAxLDcuOTE3LDI4OC4wOCw1NC4zMjIsMjY1LjY0MkM5My41NDksMjQ2LjY2NSwxMjUuNDYsMjQ4LjgyMiwxMjUuNDYsMjQ4LjgyMkwxMjUuNDYsMjQ4LjgyMnoiIGZpbGw9IiMwMDc0QkQiIGNsaXAtcnVsZT0iZXZlbm9kZCIgZmlsbC1ydWxlPSJldmVub2RkIi8+JiN4YTsJPHBhdGggZD0iTTI3Mi44NDYsMzMxLjE5OGM4NC44MTgtNDQuMDYzLDQ1LjU5Ny04Ni40MTIsMTguMjIzLTgwLjcwOCAgIGMtNi42OTQsMS4zOTctOS42OTcsMi42MDctOS42OTcsMi42MDdzMi40OTQtMy45MDcsNy4yNDMtNS41ODhjNTQuMTU1LTE5LjAzLDk1Ljc5NCw1Ni4xNDYtMTcuNDY0LDg1LjkxOSAgIEMyNzEuMTUsMzMzLjQyOCwyNzIuNDUzLDMzMi4yNDgsMjcyLjg0NiwzMzEuMTk4TDI3Mi44NDYsMzMxLjE5OHoiIGZpbGw9IiMwMDc0QkQiIGNsaXAtcnVsZT0iZXZlbm9kZCIgZmlsbC1ydWxlPSJldmVub2RkIi8+JiN4YTsJPHBhdGggZD0iTTIyMS43MTksMGMwLDAsNDYuOTYzLDQ2Ljk5LTQ0LjU1NywxMTkuMjI3ICAgYy03My4zOTMsNTcuOTY5LTE2LjczNCw5MS4wMDktMC4wMjYsMTI4Ljc3OGMtNDIuODQ1LTM4LjY1My03NC4yNzEtNzIuNjg0LTUzLjE5Mi0xMDQuMzUyICAgQzE1NC44OTgsOTcuMTc0LDI0MC42NjMsNzQuNjMyLDIyMS43MTksMEwyMjEuNzE5LDB6IiBmaWxsPSIjRUEyRDJFIiBjbGlwLXJ1bGU9ImV2ZW5vZGQiIGZpbGwtcnVsZT0iZXZlbm9kZCIvPiYjeGE7CTxwYXRoIGQ9Ik0xMzMuNzk5LDQ1MC42MzdjODEuMzk3LDUuMjA0LDIwNi40MjYtMi44OTYsMjA5LjM4NS00MS40MTUgICBjMCwwLTUuNjg4LDE0LjYwMi02Ny4yNzYsMjYuMTg4Yy02OS40ODEsMTMuMDgxLTE1NS4xOTcsMTEuNTU4LTIwNi4wMTYsMy4xNjdDNjkuODkyLDQzOC41NzcsODAuMzAzLDQ0Ny4xOTQsMTMzLjc5OSw0NTAuNjM3ICAgTDEzMy43OTksNDUwLjYzN3oiIGZpbGw9IiMwMDc0QkQiIGNsaXAtcnVsZT0iZXZlbm9kZCIgZmlsbC1ydWxlPSJldmVub2RkIi8+JiN4YTsJPHBhdGggZD0iTTMzOS40MjYsNTE5LjcxNmgtMi40Nzl2LTEuMzg1aDYuNjc2djEuMzg1aC0yLjQ2OXY2LjkyOGgtMS43MjkgICBWNTE5LjcxNkwzMzkuNDI2LDUxOS43MTZMMzM5LjQyNiw1MTkuNzE2eiBNMzUyLjc1Niw1MjAuMDY3aC0wLjAzMmwtMi40NjEsNi41NzZoLTEuMTMybC0yLjQ0Ni02LjU3NmgtMC4wMjV2Ni41NzZoLTEuNjM4di04LjMxMyAgIGgyLjQwMmwyLjI2NCw1Ljg4NWwyLjI3MS01Ljg4NWgyLjM4OHY4LjMxM2gtMS41OVY1MjAuMDY3TDM1Mi43NTYsNTIwLjA2N3oiIGZpbGw9IiNFQTJEMkUiIGNsaXAtcnVsZT0iZXZlbm9kZCIgZmlsbC1ydWxlPSJldmVub2RkIi8+JiN4YTsJPHBhdGggZD0iTTEyMC40NjEsNTk3LjgxM2MtNy42NzYsNi42NTQtMTUuNzkzLDEwLjM5Ni0yMy4wNzksMTAuMzk2ICAgYy0xMC4zNzgsMC0xNi4wMDctNi4yMzYtMTYuMDA3LTE2LjIxNmMwLTEwLjgwMyw2LjAyNy0xOC43MSwzMC4xNjMtMTguNzFoOC45MjNWNTk3LjgxM0wxMjAuNDYxLDU5Ny44MTNMMTIwLjQ2MSw1OTcuODEzeiAgICBNMTQxLjY1LDYyMS43MTZWNTQ3LjcyYzAtMTguOTE1LTEwLjc4Ny0zMS4zOTYtMzYuNzgyLTMxLjM5NmMtMTUuMTY4LDAtMjguNDY3LDMuNzUtMzkuMjc4LDguNTI1bDMuMTExLDEzLjEwNiAgIGM4LjUxNS0zLjEyNywxOS41MjYtNi4wMzEsMzAuMzM3LTYuMDMxYzE0Ljk3OCwwLDIxLjQyMyw2LjAzMSwyMS40MjMsMTguNTA1djkuMzU2aC03LjQ4NWMtMzYuMzgzLDAtNTIuNzk4LDE0LjExLTUyLjc5OCwzNS4zMzYgICBjMCwxOC4yODUsMTAuODE5LDI4LjY4MiwzMS4xODUsMjguNjgyYzEzLjA4OCwwLDIyLjg3LTUuNDA1LDMyLjAwMS0xMy4zMTVsMS42NjMsMTEuMjI4SDE0MS42NUwxNDEuNjUsNjIxLjcxNnoiIGZpbGw9IiNFQTJEMkUiIGNsaXAtcnVsZT0iZXZlbm9kZCIgZmlsbC1ydWxlPSJldmVub2RkIi8+JiN4YTsJPHBhdGggZD0iTTIxMi4zNjIsNjIxLjcxNmgtMjYuNDIzbC0zMS44MDctMTAzLjUwMmgyMy4wNzdsMTkuNzQzLDYzLjYgICBsNC4zOTEsMTkuMTA5YzkuOTY1LTI3LjYzOSwxNy4wMzItNTUuNzAxLDIwLjU2Ni04Mi43MDloMjIuNDQ1QzIzOC4zNTIsNTUyLjI5NCwyMjcuNTIzLDU4OS43MDYsMjEyLjM2Miw2MjEuNzE2TDIxMi4zNjIsNjIxLjcxNnoiIGZpbGw9IiNFQTJEMkUiIGNsaXAtcnVsZT0iZXZlbm9kZCIgZmlsbC1ydWxlPSJldmVub2RkIi8+JiN4YTsJPHBhdGggZD0iTTMxMy43NTUsNTk3LjgxM2MtNy43MDEsNi42NTQtMTUuODIsMTAuMzk2LTIzLjA4NiwxMC4zOTYgICBjLTEwLjM4MiwwLTE2LjAxMS02LjIzNi0xNi4wMTEtMTYuMjE2YzAtMTAuODAzLDYuMDM5LTE4LjcxLDMwLjE1NC0xOC43MWg4Ljk0MlY1OTcuODEzTDMxMy43NTUsNTk3LjgxM0wzMTMuNzU1LDU5Ny44MTN6ICAgIE0zMzQuOTUxLDYyMS43MTZWNTQ3LjcyYzAtMTguOTE1LTEwLjgxOC0zMS4zOTYtMzYuNzg5LTMxLjM5NmMtMTUuMTg4LDAtMjguNDg0LDMuNzUtMzkuMjk1LDguNTI1bDMuMTE2LDEzLjEwNiAgIGM4LjUxOS0zLjEyNywxOS41NDUtNi4wMzEsMzAuMzU1LTYuMDMxYzE0Ljk2LDAsMjEuNDE2LDYuMDMxLDIxLjQxNiwxOC41MDV2OS4zNTZoLTcuNDg1Yy0zNi4zOTEsMC01Mi44MDEsMTQuMTEtNTIuODAxLDM1LjMzNiAgIGMwLDE4LjI4NSwxMC44MDQsMjguNjgyLDMxLjE2OSwyOC42ODJjMTMuMDk5LDAsMjIuODYyLTUuNDA1LDMyLjAxOC0xMy4zMTVsMS42NzQsMTEuMjI4SDMzNC45NTFMMzM0Ljk1MSw2MjEuNzE2eiIgZmlsbD0iI0VBMkQyRSIgY2xpcC1ydWxlPSJldmVub2RkIiBmaWxsLXJ1bGU9ImV2ZW5vZGQiLz4mI3hhOwk8cGF0aCBkPSJNMzYuOTQxLDYzOS4zMDZjLTYuMDM3LDguODIxLTE1LjgsMTUuODA5LTI2LjQ3OSwxOS43NDkgICBMMCw2NDYuNzMxYzguMTM1LTQuMTc4LDE1LjEwMy0xMC45MTIsMTguMzQ1LTE3LjE4MmMyLjc5Ni01LjU4OSwzLjk2LTEyLjc3MywzLjk2LTI5Ljk3MVY0ODEuMzk4aDIyLjUxOXYxMTYuNTUxICAgQzQ0LjgyNCw2MjAuOTUsNDIuOTg4LDYzMC4yNDksMzYuOTQxLDYzOS4zMDZMMzYuOTQxLDYzOS4zMDZ6IiBmaWxsPSIjRUEyRDJFIiBjbGlwLXJ1bGU9ImV2ZW5vZGQiIGZpbGwtcnVsZT0iZXZlbm9kZCIvPiYjeGE7PC9nPiYjeGE7PC9zdmc+;" parent="1" vertex="1">
          <mxGeometry x="110" y="387.50000000000006" width="20" height="37.24" as="geometry" />
        </mxCell>
        <mxCell id="x5C6FpIDevCYcziMVME_-23" value="&lt;div&gt;Codification APE assistée&lt;br&gt;&lt;/div&gt;" style="rounded=1;whiteSpace=wrap;html=1;fillColor=#f8cecc;strokeColor=#b85450;fontFamily=Work Sans;fontSource=https%3A%2F%2Ffonts.googleapis.com%2Fcss%3Ffamily%3DWork%2BSans;" parent="1" vertex="1">
          <mxGeometry x="530" y="357.5" width="120" height="60" as="geometry" />
        </mxCell>
        <mxCell id="x5C6FpIDevCYcziMVME_-27" value="" style="sketch=0;pointerEvents=1;shadow=0;dashed=0;html=1;strokeColor=#666666;fillColor=#f5f5f5;labelPosition=center;verticalLabelPosition=bottom;verticalAlign=top;outlineConnect=0;align=center;shape=mxgraph.office.users.approver;fontColor=#333333;" parent="1" vertex="1">
          <mxGeometry x="730" y="325" width="59" height="55" as="geometry" />
        </mxCell>
        <mxCell id="x5C6FpIDevCYcziMVME_-29" value="&lt;div&gt;IC &amp;lt; Seuil&lt;/div&gt;" style="text;html=1;strokeColor=none;fillColor=none;align=center;verticalAlign=middle;whiteSpace=wrap;rounded=0;rotation=0;fontFamily=Work Sans;fontSource=https%3A%2F%2Ffonts.googleapis.com%2Fcss%3Ffamily%3DWork%2BSans;" parent="1" vertex="1">
          <mxGeometry x="70" y="290" width="120" height="30" as="geometry" />
        </mxCell>
        <mxCell id="S_g0ONeS2pqSJaHyuwxj-1" value="" style="verticalLabelPosition=bottom;html=1;verticalAlign=top;align=center;shape=mxgraph.azure.laptop;pointerEvents=1;fillColor=#f5f5f5;fontColor=#333333;strokeColor=#666666;" parent="1" vertex="1">
          <mxGeometry x="382.5" y="302.5" width="75" height="50" as="geometry" />
        </mxCell>
        <mxCell id="S_g0ONeS2pqSJaHyuwxj-2" value="Sirene 4&lt;div&gt;IHM&lt;/div&gt;" style="rounded=1;whiteSpace=wrap;html=1;fillColor=#dae8fc;fontFamily=Work Sans;strokeColor=#6c8ebf;fontSource=https%3A%2F%2Ffonts.googleapis.com%2Fcss%3Ffamily%3DWork%2BSans;" parent="1" vertex="1">
          <mxGeometry x="360" y="357.5" width="120" height="60" as="geometry" />
        </mxCell>
        <mxCell id="S_g0ONeS2pqSJaHyuwxj-10" style="edgeStyle=orthogonalEdgeStyle;rounded=0;orthogonalLoop=1;jettySize=auto;html=1;exitX=1;exitY=0.5;exitDx=0;exitDy=0;entryX=0;entryY=0.5;entryDx=0;entryDy=0;" parent="1" edge="1">
          <mxGeometry relative="1" as="geometry">
            <mxPoint x="310" y="386.32" as="sourcePoint" />
            <mxPoint x="360" y="386.32" as="targetPoint" />
            <Array as="points">
              <mxPoint x="350" y="386.32" />
              <mxPoint x="350" y="386.32" />
            </Array>
          </mxGeometry>
        </mxCell>
        <mxCell id="S_g0ONeS2pqSJaHyuwxj-11" style="edgeStyle=orthogonalEdgeStyle;rounded=0;orthogonalLoop=1;jettySize=auto;html=1;exitX=1;exitY=0.5;exitDx=0;exitDy=0;entryX=0;entryY=0.5;entryDx=0;entryDy=0;" parent="1" edge="1">
          <mxGeometry relative="1" as="geometry">
            <mxPoint x="480" y="386.32" as="sourcePoint" />
            <mxPoint x="530" y="386.32" as="targetPoint" />
          </mxGeometry>
        </mxCell>
        <mxCell id="S_g0ONeS2pqSJaHyuwxj-12" value="&lt;font face=&quot;Work sans&quot;&gt;&lt;i&gt;&lt;b&gt;Gestionnaire Sirene&lt;/b&gt;&lt;/i&gt;&lt;/font&gt;" style="text;html=1;align=center;verticalAlign=middle;resizable=0;points=[];autosize=1;strokeColor=none;fillColor=none;" parent="1" vertex="1">
          <mxGeometry x="700" y="290" width="140" height="30" as="geometry" />
        </mxCell>
        <mxCell id="9kH19VbP0rxIz_1x4suZ-5" value="" style="verticalLabelPosition=bottom;verticalAlign=top;html=1;shape=mxgraph.basic.layered_rect;dx=10;outlineConnect=0;whiteSpace=wrap;fillColor=#d5e8d4;strokeColor=#82b366;" parent="1" vertex="1">
          <mxGeometry x="199.9" y="337.5" width="120" height="100" as="geometry" />
        </mxCell>
        <mxCell id="9kH19VbP0rxIz_1x4suZ-10" value="&lt;div&gt;Libellé + Top-5 prédictions et probabilités&amp;nbsp;&lt;br&gt;&lt;/div&gt;&lt;div&gt;&lt;br&gt;&lt;/div&gt;&lt;div&gt;&lt;br&gt;&lt;/div&gt;" style="rounded=0;whiteSpace=wrap;html=1;fillColor=#d5e8d4;fontFamily=Work Sans;strokeColor=#82b366;fontSource=https%3A%2F%2Ffonts.googleapis.com%2Fcss%3Ffamily%3DWork%2BSans;" parent="1" vertex="1">
          <mxGeometry x="190" y="337.5" width="120" height="90" as="geometry" />
        </mxCell>
        <mxCell id="9kH19VbP0rxIz_1x4suZ-4" value="" style="dashed=0;outlineConnect=0;html=1;align=center;labelPosition=center;verticalLabelPosition=bottom;verticalAlign=top;shape=mxgraph.weblogos.json_2" parent="1" vertex="1">
          <mxGeometry x="219.9" y="397.5" width="60.2" height="20.46" as="geometry" />
        </mxCell>
        <mxCell id="9kH19VbP0rxIz_1x4suZ-12" style="edgeStyle=orthogonalEdgeStyle;rounded=0;orthogonalLoop=1;jettySize=auto;html=1;exitX=1;exitY=0.5;exitDx=0;exitDy=0;entryX=0;entryY=0.5;entryDx=0;entryDy=0;" parent="1" edge="1">
          <mxGeometry relative="1" as="geometry">
            <mxPoint x="140" y="386.90999999999997" as="sourcePoint" />
            <mxPoint x="190" y="386.90999999999997" as="targetPoint" />
            <Array as="points">
              <mxPoint x="180" y="386.90999999999997" />
              <mxPoint x="180" y="386.90999999999997" />
            </Array>
          </mxGeometry>
        </mxCell>
        <mxCell id="9kH19VbP0rxIz_1x4suZ-14" value="" style="curved=1;endArrow=classic;html=1;rounded=0;" parent="1" edge="1">
          <mxGeometry width="50" height="50" relative="1" as="geometry">
            <mxPoint x="590" y="418" as="sourcePoint" />
            <mxPoint x="420" y="417.96" as="targetPoint" />
            <Array as="points">
              <mxPoint x="590" y="460" />
              <mxPoint x="590" y="490" />
              <mxPoint x="420" y="490" />
              <mxPoint x="420" y="457.96" />
            </Array>
          </mxGeometry>
        </mxCell>
        <mxCell id="9kH19VbP0rxIz_1x4suZ-17" value="Test nouveau libellé" style="text;html=1;strokeColor=none;fillColor=none;align=center;verticalAlign=middle;whiteSpace=wrap;rounded=0;rotation=0;fontFamily=Work Sans;fontSource=https%3A%2F%2Ffonts.googleapis.com%2Fcss%3Ffamily%3DWork%2BSans;" parent="1" vertex="1">
          <mxGeometry x="450" y="450" width="120" height="30" as="geometry" />
        </mxCell>
        <mxCell id="9kH19VbP0rxIz_1x4suZ-19" value="&lt;div&gt;Codification manuelle&amp;nbsp;&lt;/div&gt;&lt;div&gt;via moteur de recherche&lt;/div&gt;" style="rounded=1;whiteSpace=wrap;html=1;fillColor=#f8cecc;strokeColor=#b85450;fontFamily=Work Sans;fontSource=https%3A%2F%2Ffonts.googleapis.com%2Fcss%3Ffamily%3DWork%2BSans;" parent="1" vertex="1">
          <mxGeometry x="530" y="260" width="120" height="60" as="geometry" />
        </mxCell>
        <mxCell id="9kH19VbP0rxIz_1x4suZ-22" style="rounded=0;orthogonalLoop=1;jettySize=auto;html=1;exitX=1;exitY=0.5;exitDx=0;exitDy=0;entryX=0;entryY=0.5;entryDx=0;entryDy=0;" parent="1" target="9kH19VbP0rxIz_1x4suZ-19" edge="1">
          <mxGeometry relative="1" as="geometry">
            <mxPoint x="480" y="376.4999999999998" as="sourcePoint" />
            <mxPoint x="530" y="278.5" as="targetPoint" />
          </mxGeometry>
        </mxCell>
        <mxCell id="9kH19VbP0rxIz_1x4suZ-23" value="" style="endArrow=classic;startArrow=classic;html=1;rounded=0;" parent="1" edge="1">
          <mxGeometry width="50" height="50" relative="1" as="geometry">
            <mxPoint x="660" y="387.5" as="sourcePoint" />
            <mxPoint x="700" y="370" as="targetPoint" />
          </mxGeometry>
        </mxCell>
        <mxCell id="9kH19VbP0rxIz_1x4suZ-24" value="" style="endArrow=classic;startArrow=classic;html=1;rounded=0;" parent="1" edge="1">
          <mxGeometry width="50" height="50" relative="1" as="geometry">
            <mxPoint x="660" y="295" as="sourcePoint" />
            <mxPoint x="700" y="315" as="targetPoint" />
          </mxGeometry>
        </mxCell>
      </root>
    </mxGraphModel>
  </diagram>
</mxfile>
